
</svg>

<svg width="24" height="24" viewBox="0 0 24 24">
  <path d="M 15.3001 22.5265 c 0.7696 0 0.7696 1.1704 0 1.1704 l -14.1016 0 c -0.3232 0 -0.5851 -0.2622 -0.5851 -0.5854 l 0 -17.6228 c 0 -0.1616 0.0655 -0.3081 0.1712 -0.4139 l 4.6007 -4.6004 c 0.1142 -0.1142 0.2639 -0.1715 0.4136 -0.1715 l 13.2348 0 c 0.3232 0 0.5854 0.2622 0.5854 0.5854 l 0 10.2434 c 0 0.7699 -1.1704 0.7699 -1.1704 0 l 0 -9.6583 l -12.4073 0 l -4.2574 4.2577 l 0 16.7954 l 13.5163 0 z m -9.9556 -5.1585 c -0.7699 0 -0.7699 -1.1704 0 -1.1704 l 8.6931 0 c 0.7699 0 0.7699 1.1704 0 1.1704 l -8.6931 0 z m 0 -7.7863 c -0.7699 0 -0.7699 -1.1704 0 -1.1704 l 8.6931 0 c 0.7699 0 0.7699 1.1704 0 1.1704 l -8.6931 0 z m 0 2.5954 c -0.7699 0 -0.7699 -1.1704 0 -1.1704 l 8.6931 0 c 0.7699 0 0.7699 1.1704 0 1.1704 l -8.6931 0 z m 0 2.5954 c -0.7699 0 -0.7699 -1.1704 0 -1.1704 l 8.6931 0 c 0.7699 0 0.7699 1.1704 0 1.1704 l -8.6931 0 z m 0 -7.7863 c -0.7699 0 -0.7699 -1.1704 0 -1.1704 l 8.6931 0 c 0.7699 0 0.7699 1.1704 0 1.1704 l -8.6931 0 z m 14.0761 6.7536 c 1.4128 0 2.558 1.1452 2.558 2.558 c 0 0.5131 -0.1511 0.9907 -0.411 1.391 c 1.065 0.7067 1.7425 1.8731 1.8179 3.1522 c 0.0451 0.7671 -1.1211 0.8354 -1.1659 0.0686 c -0.0598 -1.0117 -0.6409 -1.9128 -1.5344 -2.3879 c -0.373 0.2126 -0.8045 0.3339 -1.2645 0.3339 c -0.4978 0 -0.9624 -0.142 -1.3553 -0.3881 c -0.9479 0.4569 -1.5761 1.3901 -1.6382 2.4421 c -0.0451 0.7668 -1.211 0.6985 -1.1659 -0.0686 c 0.0791 -1.3374 0.815 -2.5478 1.9582 -3.2395 c -0.2265 -0.3818 -0.3566 -0.8274 -0.3566 -1.3037 c 0 -1.4125 1.1452 -2.558 2.5577 -2.558 z m 0 1.1704 c -0.7662 0 -1.3873 0.6214 -1.3873 1.3876 c 0 0.7662 0.6211 1.3873 1.3873 1.3873 c 0.7662 0 1.3876 -0.6211 1.3876 -1.3873 c 0 -0.7662 -0.6211 -1.3876 -1.3876 -1.3876 z"/>
</svg>
