<svg fill="#fff" width="45" height="29" viewBox="0 0 45 29" xmlns="http://www.w3.org/2000/svg">
  <path d="M724.362 204.305c-62.924-62.982-148.628-102.987-244.362-102.987-195.878 0-354.718 158.812-354.718 354.682 0 195.866 158.84 354.682 354.718 354.682 95.734 0 181.438-40.01 244.362-102.966 15.687-15.712 15.687-41.159 0-56.87-15.664-15.714-41.094-15.714-56.726 0-45.96 45.97-107.394 75.36-174.636 75.36-135.056 0-244.818-109.742-244.818-244.764s109.762-244.764 244.818-244.764c67.242 0 128.675 29.424 174.635 75.37 7.836 7.837 18.119 11.759 28.363 11.759s20.527-3.922 28.364-11.76c15.687-15.711 15.687-41.157 0-56.869z" />
</svg>
