<svg xmlns="http://www.w3.org/2000/svg" aria-hidden="true" fill="currentColor" width="135" height="765" viewBox="0 0 135 765">
  <path id="katakana-profile" d="M 91.8 8.1 C 91.8 8.1 79.154 15.5061 62.5166 18.9 C 45.8792 22.2939 21.6 21.6 21.6 21.6 L 29.7 40.5 C 29.7 40.5 70.2135 37.8027 99.9 24.3 C 95.1426 17.5554 91.8 8.1 91.8 8.1 z M 81 37.8 L 62.1 40.5 C 62.0055 40.8321 62.0298 47.1744 62.1 59.4 L 18.9 59.4 L 18.9 75.6 L 62.1 75.6 C 61.9974 94.4487 43.1433 105.2892 29.7 105.3 L 40.5 121.5 C 40.5 121.5 67.0845 117.1773 77.0502 97.2 C 78.9591 93.3795 80.8866 83.6757 81 75.6 L 116.1 75.6 L 116.1 59.4 L 81 59.4 C 80.9028 44.9388 81 37.8 81 37.8 z M 21.6 137 L 21.6 150.5 L 59.4 150.5 L 59.4 204.5 L 8.1 204.5 L 8.1 218 L 126.9 218 L 126.9 204.5 L 75.6 204.5 L 75.6 150.5 L 110.7 150.5 L 110.7 137 L 21.6 137 z
M 86.4 279 h 8.1 c 0 0 -2.6784 3.456 -2.7 8.1 s 0 64.8 0 64.8 h -16.2 V 287.1 c 0 0 -14.2101 14.5422 -51.3 29.7 c -2.0736 -4.3011 -8.1 -13.5 -8.1 -13.5 s 21.7377 -6.6474 51.3 -29.7 S 102.6 233.1 102.6 233.1 l 16.2 10.8 c 0 0 -3.3291 3.0159 -5.4 5.4 S 86.4 279 86.4 279 z M 27 381.6 l 2.7 21.6 c 18.4572 0.1809 32.4054 -3.5127 51.3 -8.1 c 0 0 2.2788 15.8679 -18.9 32.4 C 39.5037 445.1364 8.1 454.5 8.1 454.5 l 13.5 18.9 c 20.7954 -9.1233 35.6076 -18.4275 54 -35.1 c 16.2081 10.5651 31.6089 19.8639 40.5 35.1 l 10.8 -21.6 c -8.2134 -10.7406 -26.2548 -22.5585 -38.7828 -28.4715 C 94.3407 415.0233 98.5473 400.8942 99.9 392.4 l 5.4 -2.7 c -6.3045 -4.4685 -11.2401 -9.5904 -14.2371 -13.5 C 69.8166 379.44 48.762 381.7782 27 381.6 z M 13.5 571.6 v 97.2 h 16.2 v -8.1 h 75.6 v 8.1 h 16.2 V 571.6 H 13.5 z M 105.3 644.5 H 29.7 V 587.8 h 75.6 V 644.5 z M 25.64 737.6839 L 25.64 753.8839 L 116.36 753.8839 L 116.36 737.6839 L 25.64 737.6839 z z M 67.5 791.6 C 70.4565 793.1876 70.2 797 70.2 797 L 70.2 861.8 L 64.8 864.5 C 66.7224 867.2297 70.335 873.221 72.9 878 C 110.1465 863.7818 124.2 832.1 124.2 832.1 C 124.2 832.1 116.6859 826.1762 110.7 821.3 C 108.1701 836.1824 86.4 853.7 86.4 853.7 C 86.4297 838.0805 86.2542 802.2488 86.4 797 C 86.5458 791.7674 89.1 791.6 89.1 791.6 L 67.5 791.6 z M 35.1 799.7 C 35.1 799.7 37.8378 801.3389 37.8 805.1 C 37.773 807.6191 37.8621 827.0132 32.4 840.2 C 24.678 858.8462 10.8 867.2 10.8 867.2 L 21.6 880.7 C 21.6 880.7 40.8024 866.1821 48.6 845.6 C 54.7614 829.3298 54 805.1 54 805.1 C 54.4536 802.6187 55.3797 800.861 56.7 799.7 L 35.1 799.7 z" />
</svg>
