<?xml version="1.0" encoding="UTF-8" standalone="no" ?>
<!DOCTYPE svg PUBLIC "-//W3C//DTD SVG 1.1//EN" "http://www.w3.org/Graphics/SVG/1.1/DTD/svg11.dtd">
<svg xmlns="http://www.w3.org/2000/svg" xmlns:xlink="http://www.w3.org/1999/xlink" version="1.1" width="1080" height="1080" viewBox="0 0 1080 1080" xml:space="preserve">
<desc>Created with Fabric.js 5.2.4</desc>
<defs>
</defs>
<g transform="matrix(1 0 0 1 540 540)" id="dd43ffe9-1fd0-4661-a452-75d2cdbdd7d5"  >
<rect style="stroke: none; stroke-width: 1; stroke-dasharray: none; stroke-linecap: butt; stroke-dashoffset: 0; stroke-linejoin: miter; stroke-miterlimit: 4; fill: rgb(255,255,255); fill-rule: nonzero; opacity: 1; visibility: hidden;" vector-effect="non-scaling-stroke"  x="-540" y="-540" rx="0" ry="0" width="1080" height="1080" />
</g>
<g transform="matrix(1 0 0 1 540 540)" id="2e270f03-4b4a-4fc3-9b35-82453b3b84de"  >
</g>
<g transform="matrix(1 0 0 1 540 540)" id="katakana-project"  >
<path style="stroke: rgb(0,0,0); stroke-width: 0; stroke-dasharray: none; stroke-linecap: butt; stroke-dashoffset: 0; stroke-linejoin: miter; stroke-miterlimit: 4; fill: rgb(88,124,167); fill-rule: nonzero; opacity: 1;" vector-effect="non-scaling-stroke"  transform=" translate(-375.01, -68.4)" d="M 113.904 33.552 L 113.616 34.704 C 113.49197215491877 35.18976659743766 113.34784827471438 35.670179531452284 113.184 36.144 L 112.32 39.888 C 100.512 86.112 75.45599999999999 115.19999999999999 29.663999999999987 135.648 C 24.91199999999999 126 20.87999999999999 120.52799999999999 11.519999999999989 111.45599999999999 C 49.82399999999999 99.50399999999999 75.744 74.01599999999999 83.952 40.463999999999984 L 23.76 40.463999999999984 C 8.496000000000002 40.60799999999998 5.040000000000003 40.75199999999998 0 41.32799999999998 L 0 15.40799999999998 C 5.472 16.27199999999998 9.504 16.55999999999998 24.192 16.55999999999998 L 97.632 16.55999999999998 C 98.06400000000001 7.63199999999998 104.976 1.0079999999999814 113.76 1.0079999999999814 C 122.83200000000001 1.0079999999999814 130.032 8.20799999999998 130.032 17.27999999999998 C 130.032 26.35199999999998 122.97600000000001 33.40799999999998 113.90400000000001 33.55199999999998 z M 113.75999999999999 9.072 C 109.29599999999999 9.072 105.55199999999999 12.815999999999999 105.55199999999999 17.28 C 105.55199999999999 21.6 109.29599999999999 25.344 113.75999999999999 25.344 C 118.22399999999999 25.344 121.96799999999999 21.6 121.96799999999999 17.28 C 121.96799999999999 12.816 118.22399999999999 9.072000000000001 113.75999999999999 9.072000000000001 z M 218.288 120.096 L 156.512 120.096 L 156.512 130.032 L 130.304 130.032 C 131.168 122.11200000000001 131.456 117.21600000000001 131.456 106.56 L 131.456 32.544 C 131.456 26.351999999999997 131.31199999999998 21.887999999999998 130.88 15.983999999999998 C 135.92 16.415999999999997 138.79999999999998 16.56 148.304 16.56 L 225.92000000000002 16.56 C 234.848 16.56 237.008 16.56 243.776 15.983999999999998 C 243.488 21.023999999999997 243.34400000000002 26.208 243.34400000000002 32.976 L 243.34400000000002 105.984 C 243.34400000000002 117.07199999999999 243.63200000000003 123.984 244.35200000000003 129.744 L 218.28800000000004 129.744 L 218.28800000000004 120.096 z M 218.288 97.05600000000001 L 218.288 39.6 L 156.512 39.6 L 156.512 97.05600000000001 L 218.288 97.05600000000001 z M 264.064 28.36800000000001 L 276.88 7.92 C 292.71999999999997 13.68 308.272 20.880000000000003 318.20799999999997 26.927999999999997 L 305.392 48.96 C 292 40.032 276.88 32.544 264.064 28.368 z M 337.072 11.376000000000008 L 351.328 6.6240000000000085 C 356.368 13.248000000000008 360.688 21.31200000000001 364 29.52000000000001 L 349.744 34.70400000000001 C 345.85600000000005 25.20000000000001 342.25600000000003 18.43200000000001 337.072 11.376000000000008 z M 252.832 63.792 L 266.08 43.2 C 281.488 49.248000000000005 295.024 56.016000000000005 306.256 63.648 L 294.01599999999996 86.256 C 283.64799999999997 78.19200000000001 267.52 69.408 252.83199999999997 63.792 z M 357.808 4.608 L 371.344 0 C 376.096 6.048 380.128 12.816 384.15999999999997 22.176 L 370.33599999999996 27.215999999999998 C 366.304 17.711999999999996 362.55999999999995 10.943999999999999 357.80799999999994 4.607999999999997 z M 264.20799999999997 133.488 L 257.008 106.128 C 269.68 106.128 287.96799999999996 102.24 301.35999999999996 96.912 C 328.28799999999995 86.256 347.29599999999994 65.08800000000001 357.52 33.98400000000001 C 364.43199999999996 41.760000000000005 371.056 47.376000000000005 378.688 51.98400000000001 C 360.4 97.2 327.712 121.968 274.432 131.04 C 269.392 132.048 267.088 132.624 264.208 133.488 z M 449.952 64.8 L 449.952 107.71199999999999 L 472.416 107.71199999999999 C 481.632 107.71199999999999 486.096 107.56799999999998 491.856 106.84799999999998 L 491.856 128.736 C 486.67199999999997 128.304 482.64 128.16 472.416 128.16 L 405.456 128.16 C 394.944 128.16 392.784 128.16 385.872 128.736 L 385.872 106.84799999999998 C 391.2 107.56799999999998 394.8 107.71199999999999 405.312 107.71199999999999 L 426.91200000000003 107.71199999999999 L 426.91200000000003 64.8 L 413.66400000000004 64.8 C 404.16 64.8 401.136 64.944 394.9440000000001 65.52 L 394.9440000000001 43.488 C 400.56000000000006 44.208 404.88000000000005 44.496 413.5200000000001 44.496 L 463.77600000000007 44.496 C 472.9920000000001 44.496 477.02400000000006 44.208000000000006 482.64000000000004 43.488 L 482.64000000000004 65.52 C 478.60800000000006 65.088 472.70400000000006 64.8 463.77600000000007 64.8 L 449.95200000000006 64.8 z M 547.424 2.735999999999997 L 574.64 7.631999999999997 C 573.92 8.927999999999997 573.632 9.359999999999998 572.912 11.231999999999998 C 572.624 11.663999999999998 572.336 12.527999999999997 571.904 13.391999999999998 C 571.328 14.831999999999997 570.896 15.839999999999998 570.608 16.415999999999997 C 568.736 20.592 568.736 20.592 567.728 22.607999999999997 L 603.872 22.176 C 609.4879999999999 22.176 611.072 21.887999999999998 614.5279999999999 20.592 L 626.48 32.4 C 624.7520000000001 35.28 624.32 36.144 622.304 42.623999999999995 C 614.9599999999999 66.52799999999999 605.168 85.24799999999999 592.496 99.648 C 579.392 114.624 563.12 126 539.504 136.8 C 534.7520000000001 127.58400000000002 530.288 121.96800000000002 522.224 114.912 C 542.672 107.424 557.648 98.208 570.32 85.536 C 580.976 74.736 589.0400000000001 61.2 594.368 44.64 L 556.0640000000001 45.072 C 546.7040000000001 59.904 537.056 70.416 523.3760000000001 81.21600000000001 C 516.032 72.864 512.4320000000001 69.69600000000001 502.9280000000001 63.93600000000001 C 520.4960000000001 51.55200000000001 531.8720000000001 38.44800000000001 541.2320000000001 20.016000000000005 C 544.9760000000001 12.528000000000006 546.7040000000001 7.776000000000005 547.4240000000001 2.736000000000004 z M 685.36 133.05599999999998 L 657.568 133.05599999999998 C 658.144 126.57599999999998 658.432 122.39999999999998 658.432 111.02399999999999 L 658.432 27.216 C 658.432 15.552000000000001 658.288 14.112000000000002 657.424 6.336000000000002 L 685.216 6.336000000000002 C 684.64 10.512000000000002 684.496 17.712000000000003 684.496 27.360000000000003 L 684.496 47.08800000000001 C 708.976 55.15200000000001 727.552 63.64800000000001 750.016 77.04 L 736.336 101.52000000000001 C 722.368 91.87200000000001 705.376 82.51200000000001 690.976 76.46400000000001 C 685.936 74.44800000000001 685.936 74.44800000000001 684.496 73.58400000000002 L 684.496 111.02400000000002 C 684.496 120.67200000000001 684.784 127.87200000000001 685.36 133.056 z" stroke-linecap="round" />
</g>
</svg>