<?xml version="1.0" standalone="no"?>
<!DOCTYPE svg PUBLIC "-//W3C//DTD SVG 20010904//EN"
 "http://www.w3.org/TR/2001/REC-SVG-20010904/DTD/svg10.dtd">
<svg version="1.0" xmlns="http://www.w3.org/2000/svg"
 width="450.000000pt" height="148.000000pt" viewBox="0 0 450.000000 148.000000"
 preserveAspectRatio="xMidYMid meet">

<g transform="translate(0.000000,148.000000) scale(0.100000,-0.100000)"
fill="#000000" stroke="none">
<path d="M1530 979 c0 -7 -11 -9 -30 -5 -21 4 -29 2 -24 -5 4 -7 -1 -9 -15 -4
-16 5 -29 -2 -53 -27 -17 -18 -25 -24 -18 -13 8 11 -2 5 -22 -14 -20 -19 -34
-39 -31 -47 3 -8 -2 -16 -10 -20 -9 -3 -13 -12 -10 -21 5 -12 3 -14 -6 -8 -10
5 -11 2 -6 -14 3 -11 2 -21 -3 -21 -5 0 -8 -27 -8 -60 0 -33 5 -60 9 -60 5 0
7 -7 3 -15 -3 -8 -1 -15 4 -15 5 0 6 -7 3 -17 -4 -9 -2 -14 3 -10 6 3 16 -4
24 -16 11 -19 11 -21 -1 -12 -8 6 -3 0 11 -12 14 -12 36 -35 49 -50 13 -15 20
-21 16 -13 -5 12 -4 12 7 -1 7 -9 19 -14 27 -11 9 3 11 0 6 -8 -6 -10 -4 -12
8 -7 10 3 17 3 17 -1 0 -4 31 -7 70 -7 38 0 70 4 70 9 0 4 7 5 16 2 21 -8 51
10 104 63 25 25 38 41 30 37 -9 -4 -8 -2 2 7 10 8 15 17 11 20 -3 4 -1 7 5 7
6 0 9 7 5 17 -5 11 -3 14 6 8 10 -5 11 -2 6 14 -4 12 -2 21 4 21 6 0 11 21 11
50 0 29 -5 50 -11 50 -6 0 -8 9 -4 21 5 16 4 19 -6 14 -9 -6 -11 -3 -6 8 3 10
2 17 -4 17 -6 0 -7 5 -4 10 7 11 -84 105 -97 102 -5 -1 -8 3 -8 9 0 5 -4 7
-10 4 -5 -3 -10 -2 -10 4 0 6 -7 7 -17 4 -12 -5 -14 -3 -8 7 6 10 2 11 -18 6
-14 -3 -29 -2 -32 4 -8 14 -55 13 -55 -1z m50 -50 c0 -6 9 -9 20 -6 11 3 20 1
20 -5 0 -6 7 -7 16 -4 8 3 13 2 10 -3 -3 -5 1 -12 10 -15 10 -4 13 -2 9 7 -4
6 3 1 15 -13 12 -14 31 -33 43 -43 12 -10 15 -16 7 -12 -10 4 -9 2 2 -8 10 -8
15 -17 11 -20 -3 -4 -1 -7 6 -7 8 0 10 -7 6 -21 -5 -15 -4 -19 4 -15 7 5 11
-8 11 -38 0 -26 -5 -46 -11 -46 -6 0 -8 -9 -4 -21 5 -13 3 -19 -3 -15 -5 3
-13 -1 -16 -10 -4 -9 -2 -13 5 -8 22 13 -9 -31 -42 -61 -18 -16 -29 -23 -24
-15 6 10 4 9 -6 -2 -9 -9 -19 -14 -23 -11 -3 4 -6 1 -6 -5 0 -6 -7 -9 -15 -6
-8 4 -15 2 -15 -2 0 -5 -27 -9 -59 -9 -33 0 -57 4 -53 9 3 5 -3 6 -13 2 -14
-5 -25 0 -38 16 -10 13 -16 16 -12 8 4 -10 2 -9 -8 2 -8 10 -17 14 -21 10 -4
-4 -6 -2 -4 5 2 6 -6 19 -17 28 -11 9 -13 14 -5 10 10 -4 9 -2 -2 8 -10 8 -15
17 -11 20 3 4 1 7 -5 7 -6 0 -9 7 -6 15 4 8 2 15 -2 15 -5 0 -9 24 -10 54 0
31 4 52 9 49 5 -3 6 4 2 16 -5 16 3 29 32 58 21 20 27 28 13 17 l-25 -19 19
22 c10 13 22 20 27 17 5 -2 17 4 27 14 10 10 24 16 32 14 8 -3 10 0 5 8 -5 9
-2 10 14 5 12 -4 21 -2 21 4 0 6 14 11 30 11 17 0 30 -5 30 -11z m-210 -33 c0
-2 -8 -10 -17 -17 -16 -13 -17 -12 -4 4 13 16 21 21 21 13z"/>
<path d="M2910 979 c0 -6 -9 -8 -20 -4 -12 4 -20 2 -20 -5 0 -6 -4 -8 -10 -5
-24 15 -133 -76 -123 -103 5 -11 3 -13 -7 -7 -8 5 -11 4 -7 -3 10 -14 -3 -43
-15 -36 -6 4 -8 -2 -3 -15 3 -11 2 -21 -3 -21 -5 0 -9 -27 -9 -60 -1 -38 3
-58 9 -54 6 4 8 -2 3 -15 -4 -13 -2 -21 5 -21 6 0 8 -4 5 -10 -3 -5 -1 -10 6
-10 7 0 9 -3 6 -7 -4 -3 1 -12 11 -20 11 -10 12 -12 2 -8 -8 4 -6 -1 5 -10 11
-9 19 -21 17 -26 -1 -5 2 -8 7 -7 5 2 17 -6 26 -17 9 -11 14 -13 10 -5 -4 8 2
4 13 -9 11 -13 24 -21 31 -17 6 4 11 3 11 -3 0 -6 7 -8 15 -5 8 4 15 2 15 -2
0 -5 29 -9 65 -9 36 0 65 3 65 7 0 4 7 5 15 2 8 -4 15 -1 15 6 0 6 5 8 10 5 6
-3 10 -1 10 6 0 7 3 9 7 6 3 -4 12 1 20 11 9 11 12 12 7 2 -3 -8 4 -4 18 10
31 32 33 57 5 56 -12 -1 -29 -8 -37 -16 -8 -9 -13 -11 -10 -5 3 6 -2 3 -11 -7
-9 -9 -19 -14 -23 -11 -3 4 -6 1 -6 -5 0 -6 -7 -9 -15 -6 -8 4 -15 2 -15 -2 0
-5 -25 -9 -55 -9 -30 0 -55 4 -55 9 0 4 -7 6 -15 2 -8 -3 -15 0 -15 6 0 6 -3
9 -6 5 -4 -3 -14 2 -23 11 -9 10 -12 12 -7 5 16 -24 2 -13 -34 24 -19 21 -28
33 -20 28 10 -6 9 -4 -2 6 -9 9 -14 19 -11 23 4 3 1 6 -5 6 -6 0 -9 7 -6 15 4
8 2 15 -2 15 -5 0 -9 25 -9 55 0 30 4 55 9 55 4 0 6 7 2 15 -3 8 0 15 6 15 6
0 8 3 5 7 -4 3 1 12 11 20 10 9 11 11 2 7 -8 -4 -2 6 15 24 31 33 44 42 29 19
-5 -7 -2 -5 7 5 9 9 19 14 23 11 3 -4 6 -1 6 6 0 7 5 9 10 6 6 -3 10 -2 10 4
0 6 7 8 15 5 8 -4 15 -1 15 5 0 6 19 11 45 11 25 0 45 -4 45 -10 0 -5 7 -7 15
-4 8 4 15 1 15 -6 0 -6 5 -8 10 -5 6 3 10 1 10 -6 0 -7 3 -10 6 -6 4 3 15 -4
26 -16 11 -12 17 -15 13 -7 -4 9 0 7 9 -4 8 -10 20 -16 27 -14 20 7 17 47 -5
65 l-21 18 19 -25 c11 -14 3 -8 -17 13 -23 24 -44 37 -52 33 -8 -3 -15 -1 -15
5 0 6 -9 8 -20 4 -11 -4 -20 -2 -20 4 0 6 -20 11 -45 11 -25 0 -45 -5 -45 -11z
m-100 -43 c0 -2 -8 -10 -17 -17 -16 -13 -17 -12 -4 4 13 16 21 21 21 13z m-40
-40 c0 -2 -8 -10 -17 -17 -16 -13 -17 -12 -4 4 13 16 21 21 21 13z"/>
<path d="M402 968 c-9 -9 -9 -15 1 -27 10 -12 9 -13 -3 -6 -12 6 -12 5 -4 -5
9 -8 42 -11 115 -8 83 2 107 0 117 -12 12 -13 13 -13 6 0 -6 13 -5 13 7 0 8
-8 21 -20 29 -28 8 -7 9 -11 3 -7 -9 4 -11 1 -7 -9 3 -9 10 -16 15 -16 5 0 9
-9 9 -21 0 -12 -4 -18 -11 -13 -7 4 -10 2 -7 -6 6 -19 -44 -66 -64 -62 -10 3
-18 -1 -18 -7 0 -9 -28 -12 -97 -10 l-98 2 -3 -119 c-1 -65 -1 -123 2 -130 3
-7 15 -9 31 -6 l26 5 -3 109 -3 110 93 -4 c50 -1 92 1 92 6 0 4 7 5 16 2 10
-4 13 -2 8 6 -5 7 -2 9 8 5 10 -3 24 3 35 16 18 22 18 22 -2 7 -17 -12 -17
-11 1 6 13 12 20 25 17 28 -4 3 -2 6 3 6 5 0 9 22 9 50 0 27 -4 50 -8 50 -5 0
-5 5 -2 10 4 6 -8 25 -26 43 -17 18 -29 26 -25 20 5 -9 2 -11 -8 -7 -9 3 -14
10 -11 14 3 5 -4 6 -15 3 -11 -3 -20 0 -20 6 0 16 -192 15 -208 -1z m268 -192
c0 -2 -8 -10 -17 -17 -16 -13 -17 -12 -4 4 13 16 21 21 21 13z"/>
<path d="M860 970 c0 -5 -5 -9 -12 -7 -7 1 -12 -7 -13 -18 0 -19 7 -20 108
-20 59 0 107 -4 107 -8 0 -5 3 -6 8 -4 9 4 52 -40 44 -47 -3 -3 -1 -6 5 -6 5
0 10 -14 11 -30 0 -17 -2 -28 -6 -26 -4 2 -16 -8 -26 -23 l-20 -26 25 20 24
20 -19 -23 c-11 -12 -26 -20 -33 -18 -7 3 -13 2 -13 -2 0 -4 -31 -6 -70 -4
-106 6 -103 -5 42 -150 68 -68 98 -97 68 -63 l-55 61 69 -68 c37 -37 71 -66
75 -64 11 7 5 61 -7 61 -5 0 -43 34 -84 76 -40 41 -62 62 -48 45 24 -30 24
-30 -13 3 -20 19 -37 35 -37 36 0 0 10 1 22 2 11 1 25 7 29 14 4 7 14 9 23 6
9 -4 16 -2 16 4 0 6 3 9 8 7 9 -5 61 49 54 56 -3 4 -1 6 5 6 6 0 9 9 6 20 -3
11 0 20 6 20 6 0 11 7 11 15 0 8 -5 15 -11 15 -6 0 -9 9 -6 20 3 11 1 20 -5
20 -5 0 -8 3 -6 8 5 9 -49 61 -56 54 -4 -3 -6 -1 -6 5 0 6 -12 8 -26 5 -19 -3
-25 -1 -20 7 5 8 -18 11 -83 11 -54 0 -91 -4 -91 -10z"/>
<path d="M2047 958 c-3 -13 -7 -104 -8 -203 -2 -169 -3 -181 -23 -198 -12 -10
-15 -15 -7 -11 9 4 12 3 7 -4 -4 -6 -14 -8 -23 -5 -12 5 -14 3 -8 -7 5 -9 4
-11 -4 -6 -6 4 -18 0 -27 -8 -9 -9 -19 -14 -23 -12 -4 3 -7 -3 -8 -12 -1 -14
7 -17 37 -17 21 0 37 3 34 6 -2 4 3 10 12 13 10 4 13 2 7 -7 -4 -6 10 5 30 26
21 20 35 42 32 47 -3 6 -3 10 2 10 4 0 7 91 6 202 -2 164 -5 204 -17 206 -7 2
-16 -7 -19 -20z"/>
<path d="M2215 970 c3 -6 -1 -7 -9 -4 -19 7 -21 -7 -3 -25 10 -11 9 -12 -2 -6
-9 5 -12 4 -7 -3 5 -9 63 -12 192 -12 120 0 183 4 179 10 -3 6 1 7 9 4 19 -7
21 7 4 25 -11 11 -10 12 1 6 9 -5 12 -4 7 3 -5 9 -63 12 -192 12 -120 0 -183
-4 -179 -10z"/>
<path d="M3270 969 c0 -5 -4 -8 -8 -5 -5 3 -8 -5 -7 -17 2 -21 6 -22 94 -22
l92 0 -3 -225 c-3 -219 -2 -225 17 -225 19 0 20 6 17 225 l-3 225 93 0 c90 0
93 1 96 24 2 15 0 21 -7 17 -6 -4 -11 -2 -11 3 0 7 -61 11 -185 11 -124 0
-185 -4 -185 -11z"/>
<path d="M3890 969 c0 -7 -10 -9 -26 -5 -14 4 -23 3 -20 -2 2 -4 -5 -14 -17
-22 -21 -12 -21 -12 -7 6 9 12 4 10 -13 -5 -29 -26 -35 -36 -14 -26 6 4 4 0
-5 -8 -10 -8 -15 -17 -11 -20 3 -4 2 -7 -4 -7 -5 0 -10 -20 -10 -45 0 -25 4
-45 8 -45 5 0 6 -6 3 -14 -3 -7 11 -27 31 -45 27 -24 42 -30 60 -25 17 4 25 2
25 -6 0 -9 15 -11 52 -8 48 5 56 3 78 -21 34 -36 33 -86 -1 -121 -15 -14 -32
-24 -39 -22 -8 3 -10 0 -5 -7 5 -10 -15 -12 -84 -9 -50 2 -91 -1 -91 -5 0 -5
-4 -6 -8 -3 -4 2 -8 -3 -8 -12 0 -15 14 -17 113 -17 62 0 113 4 113 9 0 5 3 7
6 3 3 -3 16 4 28 17 11 12 17 15 11 6 -5 -9 0 -5 13 8 13 14 21 31 18 38 -3 8
-1 14 4 14 6 0 10 18 10 41 0 27 -4 38 -11 33 -7 -4 -10 -1 -7 7 3 8 -2 20
-11 27 -13 11 -13 12 -1 6 8 -4 4 5 -9 19 -25 27 -37 35 -26 17 3 -6 -1 -7 -9
-4 -9 3 -13 10 -10 15 3 5 -2 6 -10 3 -9 -4 -16 -1 -16 6 0 9 -16 11 -59 7
-47 -4 -61 -2 -65 10 -4 9 -13 13 -22 9 -8 -3 -13 -2 -9 3 3 5 0 11 -7 13 -6
2 -12 24 -13 49 -1 35 4 49 24 69 13 14 21 19 17 13 -5 -9 -2 -11 8 -7 9 3 14
9 12 13 -3 4 40 5 95 3 84 -4 100 -2 105 12 13 34 -14 46 -102 46 -55 0 -84
-4 -84 -11z m150 -413 c0 -2 -8 -10 -17 -17 -16 -13 -17 -12 -4 4 13 16 21 21
21 13z"/>
<path d="M1110 946 c0 -2 8 -10 18 -17 15 -13 16 -12 3 4 -13 16 -21 21 -21
13z"/>
<path d="M1735 910 c10 -11 20 -20 23 -20 3 0 -3 9 -13 20 -10 11 -20 20 -23
20 -3 0 3 -9 13 -20z"/>
<path d="M1119 733 c-13 -16 -12 -17 4 -4 9 7 17 15 17 17 0 8 -8 3 -21 -13z"/>
<path d="M2218 736 c3 -5 -2 -7 -11 -3 -12 5 -17 1 -17 -13 0 -13 5 -18 15
-14 8 4 15 1 15 -5 0 -8 52 -11 170 -11 107 0 170 4 170 10 0 5 5 9 12 7 7 -1
12 6 13 16 0 17 -14 18 -187 20 -111 1 -184 -2 -180 -7z"/>
<path d="M1365 530 c10 -11 20 -20 23 -20 3 0 -3 9 -13 20 -10 11 -20 20 -23
20 -3 0 3 -9 13 -20z"/>
<path d="M2199 515 c0 0 -2 -11 -5 -24 -3 -17 -1 -22 11 -17 8 3 97 6 198 6
164 1 183 3 183 18 0 15 -20 17 -193 17 -106 0 -193 0 -194 0z"/>
</g>
</svg>
